<?xml version="1.0" encoding="utf-8"?>
<!-- Generator: Adobe Illustrator 24.1.2, SVG Export Plug-In . SVG Version: 6.00 Build 0)  -->
<svg version="1.1" id="Layer_1" xmlns="http://www.w3.org/2000/svg" xmlns:xlink="http://www.w3.org/1999/xlink" x="0px" y="0px"
	 viewBox="0 0 100 75" style="enable-background:new 0 0 100 75;" xml:space="preserve">
<style type="text/css">
	.st0{display:none;fill:#FFFFFF;}
	.st1{fill:#135E84;}
	.st2{fill:#FFFFFF;}
</style>
<polygon class="st0" points="82.1,19.9 51.2,1.6 20.2,19.9 20.2,55.8 51.2,74 82.1,55.8 "/>
<g>
	<path class="st1" d="M21.6,58.1c-13.2,1.2-11.4-8.2-3.3-14.6v-3.4C-3,54.2-5.4,68.4,24.6,60.6C23.4,59.9,22.4,59.1,21.6,58.1z"/>
	<path class="st1" d="M79.8,15.8c14.4-1.5,12.5,7.7,4.4,14.1v3.4C105.5,19.1,106,5.4,76,13.2C77.1,13.9,78.6,14.9,79.8,15.8z"/>
	<path class="st1" d="M76.5,16.6L56.9,5C53.4,2.9,49,2.9,45.4,5L25.8,16.6c-3.4,2-5.5,5.7-5.5,9.7v23c0,4,2.1,7.7,5.5,9.7l19.6,11.6
		c3.5,2.1,7.9,2.1,11.5,0L76.5,59c3.4-2,5.5-5.7,5.5-9.7v-23C82.1,22.3,80,18.6,76.5,16.6z"/>
	<g id="Text">
		<g id="Text_1_">
			<path class="st2" d="M35.6,46.7c-2,0-3.5-0.6-4.6-1.7c-1.1-1.2-1.6-2.8-1.6-4.9V28.7h2.5v11.4c0,1.3,0.3,2.3,1,3
				c0.7,0.7,1.6,1.1,2.8,1.1c1.2,0,2.1-0.4,2.8-1.1c0.7-0.7,1-1.7,1-3V28.7h2.5v11.3c0,2.1-0.5,3.7-1.6,4.9
				C39.1,46.1,37.6,46.7,35.6,46.7z"/>
			<path class="st2" d="M51.8,46.7c-1.2,0-2.3-0.3-3.2-0.8c-0.9-0.5-1.6-1.3-2.2-2.3c-0.5-1-0.8-2.2-0.8-3.5v-4.9
				c0-1.3,0.3-2.5,0.8-3.5c0.5-1,1.2-1.8,2.2-2.3c0.9-0.5,2-0.8,3.2-0.8c1,0,2,0.2,2.8,0.7c0.8,0.4,1.6,1.1,2.1,1.8
				c0.6,0.8,1,1.7,1.2,2.8h-2.6c-0.2-0.6-0.4-1.1-0.8-1.5c-0.4-0.4-0.8-0.8-1.3-1c-0.5-0.2-1-0.4-1.5-0.4c-1.1,0-2,0.4-2.6,1.2
				c-0.7,0.8-1,1.8-1,3v4.9c0,1.3,0.3,2.3,1,3c0.7,0.8,1.5,1.1,2.6,1.1c0.8,0,1.5-0.2,2.2-0.7s1.1-1.2,1.4-2.1h2.6
				c-0.2,1.1-0.6,2-1.2,2.8c-0.6,0.8-1.3,1.4-2.1,1.8C53.8,46.5,52.8,46.7,51.8,46.7z"/>
			<path class="st2" d="M66.8,46.7c-0.9,0-1.7-0.1-2.4-0.2c-0.8-0.2-1.5-0.4-2.1-0.7s-1.3-0.7-1.9-1.2l1.5-1.9
				c0.7,0.6,1.4,1,2.2,1.3s1.7,0.4,2.6,0.4c1.3,0,2.3-0.2,3-0.7c0.7-0.5,1.1-1.2,1.1-2v0c0-0.7-0.2-1.2-0.5-1.5
				c-0.4-0.4-0.8-0.6-1.4-0.8c-0.6-0.2-1.2-0.3-1.9-0.4c-0.7-0.1-1.3-0.2-2-0.4c-0.7-0.2-1.3-0.4-1.9-0.7c-0.6-0.3-1-0.8-1.4-1.4
				c-0.3-0.6-0.5-1.4-0.5-2.5v0c0-1.7,0.5-2.9,1.6-3.8c1.1-0.9,2.6-1.4,4.7-1.4c1,0,1.9,0.2,2.8,0.5c0.9,0.3,1.8,0.8,2.7,1.4l-1.4,2
				c-0.7-0.5-1.3-0.9-2-1.1c-0.7-0.2-1.3-0.4-2-0.4c-1.2,0-2.2,0.2-2.8,0.7c-0.7,0.5-1,1.2-1,2.1v0c0,0.7,0.2,1.2,0.6,1.5
				c0.4,0.4,0.9,0.6,1.5,0.8c0.6,0.2,1.3,0.3,2,0.5c0.7,0.1,1.3,0.3,2,0.5c0.7,0.2,1.2,0.4,1.8,0.8c0.5,0.3,1,0.8,1.3,1.4
				c0.3,0.6,0.5,1.4,0.5,2.4v0c0,1.6-0.6,2.9-1.7,3.8C70.5,46.2,68.9,46.7,66.8,46.7z"/>
		</g>
	</g>
</g>
</svg>
