<?xml version="1.0" encoding="utf-8"?>
<!-- Generator: Adobe Illustrator 24.1.2, SVG Export Plug-In . SVG Version: 6.00 Build 0)  -->
<svg version="1.1" id="Layer_1" xmlns="http://www.w3.org/2000/svg" xmlns:xlink="http://www.w3.org/1999/xlink" x="0px" y="0px"
	 viewBox="0 0 1024 1024" style="enable-background:new 0 0 1024 1024;" xml:space="preserve">
<style type="text/css">
	.st0{fill:#57DEA4;}
</style>
<g>
	<path class="st0" d="M605.5,437.7c31.5,13.2,58.6,26.2,81.3,39c22.7,12.8,41.5,26.8,56.2,42c14.8,15.2,25.6,31.8,32.6,49.8
		c7,18.1,10.5,39,10.5,62.7c0,39.2-8.9,74-26.8,104.3c-17.9,30.3-42,56-72.3,76.9c-30.3,21-65.8,37-106.4,48.1
		c-40.6,11.1-83.6,17-129.1,17.8L400.4,1024H297.8l51.3-146.9c-26.8-2.3-53-5.7-78.7-10.2c-25.6-4.5-50.7-10.6-75.2-18.4l27.4-127.6
		c25.6,8.9,52.8,16.1,81.6,21.6c28.7,5.4,57.7,9.7,86.8,12.8l75.2-219.7c-28.4-12-52.9-24.6-73.7-37.6c-20.8-13-37.9-27.4-51.3-43.1
		c-13.4-15.7-23.4-33.1-30-52.2c-6.6-19-9.9-40.4-9.9-64.1c0-29.1,6.7-56.7,20.1-82.8c13.4-26,33.3-49,59.7-68.8
		c26.4-19.8,59-35.8,97.6-48.1c38.7-12.2,83.4-18.9,134.3-20.1L654.5,0h103.2l-42,124.1c19.8,1.9,39.4,4.5,58.9,7.6
		c19.4,3.1,37.5,6.8,54.2,11.1l-25.1,117.1c-19.8-5.4-40.9-9.6-63.2-12.5c-22.3-2.9-44.6-5.5-66.7-7.9L605.5,437.7z M571.2,238.4
		c-37.7,3.9-66.6,13.5-86.8,28.8c-20.2,15.4-30.3,35.7-30.3,60.9c0,14.4,4.6,27.9,13.7,40.5c9.1,12.6,25.4,23.8,48.7,33.5
		L571.2,238.4z M493.6,756.5c43.1-4.7,76.3-16,99.7-34.1c23.3-18.1,35-42.8,35-74.3c0-6.6-1-13.3-2.9-20.1
		c-2-6.8-5.5-13.6-10.8-20.4c-5.2-6.8-12.5-13.2-21.9-19.2c-9.3-6-21.4-11.6-36.1-16.6L493.6,756.5z"/>
</g>
</svg>
