<?xml version="1.0" encoding="utf-8"?>
<!-- Generator: Adobe Illustrator 24.1.2, SVG Export Plug-In . SVG Version: 6.00 Build 0)  -->
<svg version="1.1" id="Layer_1" xmlns="http://www.w3.org/2000/svg" xmlns:xlink="http://www.w3.org/1999/xlink" x="0px" y="0px"
	 viewBox="0 0 1024 1024" style="enable-background:new 0 0 1024 1024;" xml:space="preserve">
<style type="text/css">
	.st0{fill:#80FF80;}
</style>
<path class="st0" d="M812.4,920h-8.8c1.2-76.5-10-138.7-34.3-189.9c-23.1-48.6-54.9-81.2-85.8-109.1c-21.8-19.7-41.5-34.1-58.9-46.8
	c-35.6-25.9-51.3-38.4-51.3-62.2c0-23.1,29-47.7,65.8-78.8c27.2-23,57.9-49.1,88.3-83.2c63.6-71.4,78.1-158.1,80.5-244.8h4.5
	c28.7,0,52-23.3,52-52s-23.3-52-52-52H211.8c-28.7,0-52,23.3-52,52s23.3,52,52,52h7.7c2.4,86.7,17,173.4,80.5,244.8
	c30.4,34.1,61.1,60.2,88.3,83.2c36.8,31.2,65.8,55.8,65.8,78.8c0,23.8-15.7,36.3-51.3,62.2c-17.4,12.7-37.2,27.1-58.9,46.8
	c-30.9,27.9-62.7,60.5-85.8,109.1c-24.3,51.2-35.6,113.3-34.3,189.9h-11.9c-28.7,0-52,23.3-52,52s23.3,52,52,52h600.5
	c28.7,0,52-23.3,52-52S841.1,920,812.4,920z M365.3,644.7c20.5-18.6,39.6-32.4,56.3-44.6c36-26.2,64.5-47,64.5-88.1
	c0-37.9-34-66.7-77.1-103.2c-26.3-22.3-56.2-47.6-85.1-80.1c-56.6-63.6-70-143.2-72.4-223.5h524.3c-2.4,80.3-15.8,159.9-72.4,223.5
	c-28.9,32.4-58.7,57.7-85.1,80.1c-43.1,36.5-77.1,65.3-77.1,103.2c0,41.1,28.4,61.8,64.5,88.1c16.8,12.2,35.8,26.1,56.3,44.6
	C719,696.2,774.3,760,771.6,920H255.7C253,760,308.3,696.2,365.3,644.7z"/>
<path class="st0" d="M514,590.6c97.5,75.1,209.1,140,210.4,288.5c-140.2,0-280.7,0-421.4,0C305.2,731.1,415.8,665.4,514,590.6z"/>
<path class="st0" d="M355.3,311.9c52,16.8,183.3,20.7,355.1-92.5c-30,65.9-32.3,94.6-196.3,216.8C448.3,385,355.3,311.9,355.3,311.9
	z"/>
</svg>
