<?xml version="1.0" encoding="utf-8"?>
<!-- Generator: Adobe Illustrator 24.1.2, SVG Export Plug-In . SVG Version: 6.00 Build 0)  -->
<svg version="1.1" id="Layer_1" xmlns="http://www.w3.org/2000/svg" xmlns:xlink="http://www.w3.org/1999/xlink" x="0px" y="0px"
	 viewBox="0 0 1024 1024" style="enable-background:new 0 0 1024 1024;" xml:space="preserve">
<style type="text/css">
	.st0{fill:#EF4848;}
</style>
<path class="st0" d="M0,741.3l15.1-76.3h117.5l59.1-295.5l-114,56.3l-17.9-70l161.5-77h76.3l-77,386.2h101l-15.1,76.3H0z"/>
<path class="st0" d="M480.9,611.5c9.6,0,18.5,1.8,26.6,5.5c8.1,3.6,15.1,8.4,20.9,14.4c5.9,6,10.4,13,13.7,20.9
	c3.3,8,4.9,16.3,4.9,25c0,10.3-1.9,19.8-5.8,28.5c-3.9,8.7-9.1,16.3-15.7,22.9c-6.6,6.6-14.2,11.7-22.9,15.3
	c-8.7,3.6-17.9,5.5-27.8,5.5c-9.4,0-18-1.8-25.9-5.5c-7.9-3.6-14.7-8.4-20.4-14.4c-5.7-6-10.3-12.9-13.5-20.8
	c-3.3-7.9-4.9-16-4.9-24.4c0-10.6,1.9-20.2,5.8-29c3.9-8.8,9-16.5,15.5-23c6.4-6.6,14-11.7,22.5-15.3
	C462.5,613.3,471.5,611.5,480.9,611.5z"/>
<path class="st0" d="M790.1,749.4c-20.9,0-39.9-3.2-57-9.7c-17.1-6.4-31.8-16.3-44.1-29.5c-12.3-13.2-21.9-29.9-28.7-49.9
	c-6.8-20.1-10.2-43.7-10.2-70.9c0-19,1.6-40,4.7-63.1c3.2-23.1,8.4-46.3,15.7-69.6c7.3-23.3,16.8-46,28.7-67.9
	c11.8-21.9,26.4-41.4,43.8-58.4c17.4-17,37.7-30.7,61-41c23.3-10.3,50.1-15.5,80.4-15.5c20.6,0,39.6,3.2,56.8,9.7
	c17.2,6.5,31.9,16.3,44.1,29.5c12.2,13.3,21.7,29.9,28.5,49.9c6.8,20,10.2,43.7,10.2,70.9c0,19-1.6,40-4.7,63
	c-3.2,23-8.4,46.2-15.7,69.6c-7.3,23.5-16.8,46.1-28.5,68.1c-11.7,21.9-26.3,41.4-43.6,58.4c-17.4,17-37.7,30.7-61,41
	C847.1,744.2,820.3,749.4,790.1,749.4z M803.1,679.4c12.2,0,23.6-2.5,34.1-7.6c10.6-5,20.2-12,29-20.9c8.8-8.9,16.8-19.3,23.9-31.3
	c7.2-12,13.5-24.9,19-38.7c5.5-13.8,10.2-28.3,14.1-43.4c3.9-15.1,7-30.3,9.3-45.6L738.7,614.6c3,22,10,38.3,20.8,48.9
	C770.3,674.1,784.8,679.4,803.1,679.4z M871.3,343.8c-18.3,0-34.8,5.5-49.4,16.5c-14.7,11-27.4,25.4-38.2,43.3
	c-10.8,17.8-19.7,37.9-26.7,60.1c-7,22.3-12.1,44.7-15.1,67.2l193.5-122.4c-2.8-21.8-9.6-38-20.4-48.7
	C904.2,349.1,889.6,343.8,871.3,343.8z"/>
</svg>
