<?xml version="1.0" encoding="utf-8"?>
<!-- Generator: Adobe Illustrator 24.1.2, SVG Export Plug-In . SVG Version: 6.00 Build 0)  -->
<svg version="1.1" id="Layer_1" xmlns="http://www.w3.org/2000/svg" xmlns:xlink="http://www.w3.org/1999/xlink" x="0px" y="0px"
	 viewBox="0 0 1024 1024" style="enable-background:new 0 0 1024 1024;" xml:space="preserve">
<style type="text/css">
	.st0{fill:#529CD5;}
</style>
<path class="st0" d="M0,717.5l13.5-68.3h105.1l52.9-264.3l-102,50.4l-16-62.6l144.4-68.9h68.3l-68.9,345.5h90.3l-13.5,68.3H0z"/>
<path class="st0" d="M347.4,717.5l11.3-59.8l116.7-97.6c23.1-19.1,41.9-35.8,56.5-50c14.6-14.3,26-27.1,34.3-38.4
	c8.3-11.3,13.9-21.8,17-31.3c3-9.5,4.6-19.2,4.6-29.1c0-12.6-3.7-23-11-31.3c-7.3-8.3-18.8-12.4-34.3-12.4
	c-16.2,0-31.6,3.5-46.3,10.5c-14.7,7-29.6,16.4-44.7,28.2l-38.4-52.2c21-16.6,43.2-29.8,66.7-39.8c23.5-10,48.7-14.9,75.5-14.9
	c17.6,0,33.6,2.2,48,6.6c14.4,4.4,26.7,10.9,37,19.4c10.3,8.5,18.3,18.9,23.9,31.3c5.7,12.4,8.5,26.5,8.5,42.5
	c0,15.1-2.1,29.8-6.3,44.1c-4.2,14.3-11.4,29-21.6,44.1c-10.2,15.1-23.8,31-40.8,47.7c-17,16.7-38.2,35-63.6,54.9l-70.8,57h170.6
	l-14.2,70.8H347.4z"/>
<path class="st0" d="M1007.6,577.2c0,8.8-1.1,18.5-3.1,29.1c-2.1,10.6-5.9,21.4-11.5,32.3c-5.6,10.9-13.3,21.5-23.3,31.6
	c-10,10.2-22.8,19.2-38.4,27.2c-15.6,8-34.5,14.4-56.6,19.2c-22.1,4.8-48.2,7.2-78.2,7.2c-7.1,0-14.8-0.2-23.1-0.5
	c-8.3-0.3-16.6-0.7-24.9-1.3c-8.3-0.5-16.2-1.2-23.8-1.9c-7.6-0.7-14.2-1.6-19.8-2.7l12.9-66.4c12.6,2.5,26.7,4.5,42.5,6
	c15.7,1.5,32.5,2.2,50.4,2.2c19.7,0,36.8-1.9,51.3-5.7s26.4-9.1,35.9-16.1c9.4-6.9,16.5-15.2,21.1-24.7c4.6-9.5,6.9-20,6.9-31.3
	c0-6.1-1.3-12-3.9-17.6c-2.6-5.7-7.2-10.7-13.8-15.1c-6.6-4.4-15.5-7.9-26.7-10.5c-11.2-2.6-25.5-3.9-43-3.9h-47.8l12.3-58.5h34.3
	c16.4,0,31-1.7,43.9-5c12.9-3.4,23.9-8.2,33-14.6c9.1-6.4,16.1-14.3,20.9-23.6c4.8-9.3,7.2-19.9,7.2-31.6c0-5-0.8-9.8-2.4-14.2
	c-1.6-4.4-4.5-8.3-8.8-11.8c-4.3-3.5-10.1-6.2-17.3-8.2c-7.2-2-16.5-3-27.9-3c-16.4,0-32.1,1.4-47.2,4.1c-15.1,2.7-31.6,6.7-49.4,12
	v-63.3c19.9-6.1,38.8-10.5,56.5-13.2c17.7-2.7,36-4.1,54.9-4.1c19.9,0,37.6,2.2,53,6.6c15.4,4.4,28.3,10.5,38.7,18.4
	c10.4,7.9,18.3,17.2,23.6,28c5.3,10.8,8,22.7,8,35.7c0,12.4-1.8,24.3-5.3,35.9c-3.6,11.5-8.9,22.3-16,32.3
	c-7.1,10-16.1,18.9-26.7,26.7c-10.7,7.9-23.3,14.1-37.8,18.7c22,3.6,39.1,12.1,51.3,25.6C1001.5,540.8,1007.6,557.5,1007.6,577.2z"
	/>
</svg>
