<?xml version="1.0" encoding="utf-8"?>
<!-- Generator: Adobe Illustrator 24.1.2, SVG Export Plug-In . SVG Version: 6.00 Build 0)  -->
<svg version="1.1" id="Layer_1" xmlns="http://www.w3.org/2000/svg" xmlns:xlink="http://www.w3.org/1999/xlink" x="0px" y="0px"
	 viewBox="0 0 1024 1024" style="enable-background:new 0 0 1024 1024;" xml:space="preserve">
<style type="text/css">
	.st0{fill:#BBF547;}
</style>
<path class="st0" d="M1024,512C1024,229.2,794.8,0,512,0S0,229.2,0,512s229.2,512,512,512c26.4,0,52.4-2,77.8-5.9l1,0.9
	c0.4-0.4,0.8-0.8,1.1-1.2C836.7,979.5,1024,767.6,1024,512z M480,66.7v175.9H347.8C384.7,169.2,433.7,112.6,480,66.7z M480,306.6
	V480H288.6c2.5-65.5,14.3-122.9,32-173.4H480z M480,544v173.4H316.9c-16.5-50.2-25.7-106.1-28.1-173.4H480z M480,781.4v177.5
	c-2.4-0.2-4.8-0.4-7.2-0.6c-56.7-61.9-99.5-116.7-129.6-176.9H480z M195.2,195.2c41.2-41.2,89.1-73.5,142.4-96
	c12.7-5.4,25.6-10.1,38.6-14.3c-34.8,41.7-62.6,83.7-85.2,128.2c-4.9,9.7-9.5,19.5-13.9,29.5H154
	C166.5,225.9,180.3,210.1,195.2,195.2z M99.2,337.6c4.5-10.6,9.3-20.9,14.6-31.1h139.4c-4.1,13-7.7,26.2-10.9,39.5
	c-10.2,42.5-16.1,87.4-17.7,133.9H65.1C68.6,430.8,80,383,99.2,337.6z M113.7,717.4c-5.2-10.1-10.1-20.5-14.6-31.1
	C80,641,68.6,593.2,65.1,544h159.6c2.2,65.7,10.2,122,25,173.4H113.7z M195.2,828.8c-14.9-14.9-28.7-30.7-41.2-47.4h118.6
	c1.1,2.5,2.2,5,3.3,7.5c21.9,48.8,51,95,93.9,148c-10.8-3.6-21.5-7.7-32.1-12.1C284.3,902.3,236.4,869.9,195.2,828.8z M924.8,686.4
	c-4.5,10.6-9.3,20.9-14.6,31.1H782.8c14.8-51.4,22.8-107.7,25-173.4h151C955.4,593.2,944,641,924.8,686.4z M910.3,306.6
	c5.2,10.1,10.1,20.5,14.6,31.1C944,383,955.4,430.8,958.9,480H808c-1.6-46.5-7.5-91.4-17.7-133.9c-3.2-13.3-6.8-26.5-10.9-39.5
	H910.3z M828.8,195.2c14.9,14.9,28.7,30.7,41.2,47.4H755.4c-4.4-9.9-9-19.8-13.9-29.5c-21.8-43.1-48.6-83.8-81.9-124.3
	c9,3.1,18,6.6,26.8,10.3C739.7,121.7,787.6,154.1,828.8,195.2z M544,65.1c2.5,0.2,5.1,0.4,7.6,0.6c46.6,46.1,96,103,133.1,176.8H544
	V65.1z M544,306.6h167.9c17.8,50.5,29.5,107.9,32,173.4H544V306.6z M544,544h199.8c-2.4,67.3-11.7,123.2-28.1,173.4H544V544z
	 M544,781.4h145.3c-29.9,59.9-72.4,114.5-128.8,176c-5.5,0.6-11,1.1-16.6,1.5V781.4z M828.8,828.8c-41.2,41.2-89.1,73.5-142.4,96
	c-6.7,2.8-13.4,5.5-20.2,7.9c41-51.3,69.1-96.3,90.5-143.8c1.1-2.5,2.2-5,3.3-7.5h110C857.5,798.1,843.7,813.9,828.8,828.8z"/>
</svg>
