<?xml version="1.0" encoding="utf-8"?>
<!-- Generator: Adobe Illustrator 24.1.2, SVG Export Plug-In . SVG Version: 6.00 Build 0)  -->
<svg version="1.1" id="Layer_1" xmlns="http://www.w3.org/2000/svg" xmlns:xlink="http://www.w3.org/1999/xlink" x="0px" y="0px"
	 viewBox="0 0 1024 1024" style="enable-background:new 0 0 1024 1024;" xml:space="preserve">
<style type="text/css">
	.st0{fill:#FFFF00;}
</style>
<path class="st0" d="M487.7,536.3c-27.5-18.3-55-22-75.3-1.7l-43.7,43.7c9.8,15,21.3,29.3,34.5,42.5c99,99,255.9,102.6,350.5,8
	l201.6-201.6c94.6-94.6,91-251.5-8-350.5s-255.9-102.6-350.5-8L403.2,262.3c54.3-5.8,110.4,2.7,162.2,25.4l125.2-125.2
	c45-45,119.9-43.3,167,3.8c47.1,47.1,48.8,122,3.8,167L659.9,534.9c-28.5,28.5-68.9,38.2-106.7,29.6
	C553.2,564.6,515.2,554.6,487.7,536.3z"/>
<path class="st0" d="M536.3,487.7c27.5,18.3,55,22,75.3,1.7l43.7-43.7c-9.8-15-21.3-29.3-34.5-42.5c-99-99-255.9-102.6-350.5-8
	L68.6,596.9c-94.6,94.6-91,251.5,8,350.5s255.9,102.6,350.5,8l193.7-193.7c-54.3,5.8-110.4-2.7-162.2-25.4L333.3,861.6
	c-45,45-119.9,43.3-167-3.8c-47.1-47.1-48.8-122-3.8-167l201.6-201.6c28.5-28.5,68.9-38.2,106.7-29.6
	C470.8,459.4,508.8,469.4,536.3,487.7z"/>
</svg>
