<?xml version="1.0" encoding="utf-8"?>
<!-- Generator: Adobe Illustrator 24.1.2, SVG Export Plug-In . SVG Version: 6.00 Build 0)  -->
<svg version="1.1" id="Layer_1" xmlns="http://www.w3.org/2000/svg" xmlns:xlink="http://www.w3.org/1999/xlink" x="0px" y="0px"
	 viewBox="0 0 1024 1024" style="enable-background:new 0 0 1024 1024;" xml:space="preserve">
<style type="text/css">
	.st0{fill:#FFBF00;}
	.st1{fill:none;stroke:#FFBF00;stroke-width:32;stroke-linecap:round;stroke-linejoin:round;stroke-miterlimit:10;}
</style>
<path class="st0" d="M754,536c-134.8,0-244,109.2-244,244s109.2,244,244,244s244-109.2,244-244S888.8,536,754,536z M754,992
	c-116.9,0-212-95.1-212-212s95.1-212,212-212s212,95.1,212,212S870.9,992,754,992z"/>
<polyline class="st1" points="754,633.7 754,780 895.8,780 "/>
<path class="st0" d="M257.3,39.2c0-21.5-17.5-39-39-39s-39,17.5-39,39v78c0,21.5,17.5,39,39,39s39-17.5,39-39V39.2z"/>
<path class="st0" d="M631.1,39.2c0-21.5,17.5-39,39-39s39,17.5,39,39v78c0,21.5-17.5,39-39,39s-39-17.5-39-39V39.2z"/>
<path class="st0" d="M502.7,894.5H151c-52.1,0-94.4-42.4-94.4-94.4V316.7h775.3v198.3c10.9,3.2,21.6,7,32,11.6v-313
	c0-68.6-54.6-124.4-122.7-126.4v30c0,39.1-31.8,71-71,71s-71-31.8-71-71V87.2H289.3v30.1c0,39.1-31.8,71-71,71s-71-31.8-71-71v-30
	C79.2,89.2,24.6,145,24.6,213.6V800c0,69.8,56.6,126.4,126.4,126.4h369C513.5,916.2,507.7,905.5,502.7,894.5z"/>
<path class="st0" d="M256.4,485.6h-86.2c-7.8,0-14.2-6.3-14.2-14.2v-86.2c0-7.8,6.3-14.2,14.2-14.2h86.2c7.8,0,14.2,6.3,14.2,14.2
	v86.2C270.6,479.3,264.2,485.6,256.4,485.6z"/>
<path class="st0" d="M414.4,485.6h-86.2c-7.8,0-14.2-6.3-14.2-14.2v-86.2c0-7.8,6.3-14.2,14.2-14.2h86.2c7.8,0,14.2,6.3,14.2,14.2
	v86.2C428.6,479.3,422.3,485.6,414.4,485.6z"/>
<path class="st0" d="M572.6,485.6h-86.2c-7.8,0-14.2-6.3-14.2-14.2v-86.2c0-7.8,6.3-14.2,14.2-14.2h86.2c7.8,0,14.2,6.3,14.2,14.2
	v86.2C586.8,479.3,580.4,485.6,572.6,485.6z"/>
<path class="st0" d="M730.3,485.6h-86.2c-7.8,0-14.2-6.3-14.2-14.2v-86.2c0-7.8,6.3-14.2,14.2-14.2h86.2c7.8,0,14.2,6.3,14.2,14.2
	v86.2C744.5,479.3,738.1,485.6,730.3,485.6z"/>
<path class="st0" d="M256.4,650.2h-86.2c-7.8,0-14.2-6.3-14.2-14.2v-86.2c0-7.8,6.3-14.2,14.2-14.2h86.2c7.8,0,14.2,6.3,14.2,14.2
	V636C270.6,643.9,264.2,650.2,256.4,650.2z"/>
<path class="st0" d="M414.4,650.2h-86.2c-7.8,0-14.2-6.3-14.2-14.2v-86.2c0-7.8,6.3-14.2,14.2-14.2h86.2c7.8,0,14.2,6.3,14.2,14.2
	V636C428.6,643.9,422.3,650.2,414.4,650.2z"/>
<path class="st0" d="M256.4,815h-86.2c-7.8,0-14.2-6.3-14.2-14.2v-86.2c0-7.8,6.3-14.2,14.2-14.2h86.2c7.8,0,14.2,6.3,14.2,14.2
	v86.2C270.6,808.6,264.2,815,256.4,815z"/>
<path class="st0" d="M414.4,815h-86.2c-7.8,0-14.2-6.3-14.2-14.2v-86.2c0-7.8,6.3-14.2,14.2-14.2h86.2c7.8,0,14.2,6.3,14.2,14.2
	v86.2C428.6,808.6,422.3,815,414.4,815z"/>
<path class="st0" d="M510.3,650.2c12.7-23.8,29-45.8,48.6-65.4c8.8-8.8,18.2-17,27.9-24.4v-10.6c0-7.8-6.3-14.2-14.2-14.2h-86.2
	c-7.8,0-14.2,6.3-14.2,14.2V636c0,7.8,6.3,14.2,14.2,14.2H510.3z"/>
</svg>
