<?xml version="1.0" encoding="utf-8"?>
<svg version="1.1" id="Layer_1" xmlns="http://www.w3.org/2000/svg" xmlns:xlink="http://www.w3.org/1999/xlink" x="0px" y="0px"
	 viewBox="0 0 601 201" style="enable-background:new 0 0 601 201;" xml:space="preserve">
<style type="text/css">
	.st0{fill:#FFFFFF;stroke:#000000;stroke-miterlimit:10;}
	.st1{font-family:'ArialMT';}
	.st2{font-size:12px;}
	.st3{fill:none;stroke:#000000;stroke-miterlimit:10;}
	.st4{enable-background:new    ;}
</style>
<g>
	<g>
		<g>
			<g>
				<g transform="translate(0.5,0.5)">
					<rect pointer-events="all" class="st0" width="120" height="200"/>
				</g>
				<g>
					<g>
						<text transform="matrix(1 0 0 1 33.3223 104)" class="st1 st2">C# Object</text>
					</g>
				</g>
			</g>
			<g>
				<g transform="translate(0.5,0.5)">
					<rect x="240" pointer-events="all" class="st0" width="120" height="200"/>
				</g>
				<g>
					<g>
						<text transform="matrix(1 0 0 1 258.3164 104)" class="st1 st2">Node Hierarchy</text>
					</g>
				</g>
			</g>
			<g>
				<g transform="translate(0.5,0.5)">
					<rect x="480" pointer-events="all" class="st0" width="120" height="200"/>
				</g>
				<g>
					<g>
						<text transform="matrix(1 0 0 1 496.3125 104)" class="st1 st2">Serialized String</text>
					</g>
				</g>
			</g>
			<g>
				<g transform="translate(0.5,0.5)">
					<path pointer-events="stroke" class="st3" d="M120,93h23.6"/>
					<path pointer-events="all" d="M148.9,93l-7,3.5l1.8-3.5l-1.8-3.5L148.9,93z"/>
				</g>
			</g>
			<g>
				<g transform="translate(0.5,0.5)">
					<path pointer-events="stroke" class="st3" d="M360,93h23.6"/>
					<path pointer-events="all" d="M388.9,93l-7,3.5l1.8-3.5l-1.8-3.5L388.9,93z"/>
				</g>
			</g>
			<g>
				<g transform="translate(0.5,0.5)">
					<path pointer-events="stroke" class="st3" d="M210,93h23.6"/>
					<path pointer-events="all" d="M238.9,93l-7,3.5l1.8-3.5l-1.8-3.5L238.9,93z"/>
				</g>
			</g>
			<g>
				<g transform="translate(0.5,0.5)">
					<path pointer-events="all" class="st0" d="M159,50h42c5,0,9,4,9,9v82c0,5-4,9-9,9h-42c-5,0-9-4-9-9V59C150,54,154,50,159,50z"
						/>
				</g>
				<g>
					<g>
						<text transform="matrix(1 0 0 1 163.1592 97)" class="st4"><tspan x="0" y="0" class="st1 st2">Object </tspan><tspan x="0" y="14.4" class="st1 st2">Codec</tspan></text>
					</g>
				</g>
			</g>
			<g>
				<g transform="translate(0.5,0.5)">
					<path pointer-events="stroke" class="st3" d="M450,93h23.6"/>
					<path pointer-events="all" d="M478.9,93l-7,3.5l1.8-3.5l-1.8-3.5L478.9,93z"/>
				</g>
			</g>
			<g>
				<g transform="translate(0.5,0.5)">
					<path pointer-events="all" class="st0" d="M399,50h42c5,0,9,4,9,9v82c0,5-4,9-9,9h-42c-5,0-9-4-9-9V59C390,54,394,50,399,50z"
						/>
				</g>
				<g>
					<g>
						<text transform="matrix(1 0 0 1 401.498 97)" class="st4"><tspan x="0" y="0" class="st1 st2">Format </tspan><tspan x="1.7" y="14.4" class="st1 st2">Codec</tspan></text>
					</g>
				</g>
			</g>
			<g>
				<g transform="translate(0.5,0.5)">
					<path pointer-events="stroke" class="st3" d="M240.3,108H216"/>
					<path pointer-events="all" d="M210.8,108l7-3.5L216,108l1.8,3.5L210.8,108z"/>
				</g>
			</g>
			<g>
				<g transform="translate(0.5,0.5)">
					<path pointer-events="stroke" class="st3" d="M149,108h-23.6"/>
					<path pointer-events="all" d="M120.1,108l7-3.5l-1.8,3.5l1.8,3.5L120.1,108z"/>
				</g>
			</g>
			<g>
				<g transform="translate(0.5,0.5)">
					<path pointer-events="stroke" class="st3" d="M480.3,108H456"/>
					<path pointer-events="all" d="M450.8,108l7-3.5L456,108l1.8,3.5L450.8,108z"/>
				</g>
			</g>
			<g>
				<g transform="translate(0.5,0.5)">
					<path pointer-events="stroke" class="st3" d="M389,108h-23.6"/>
					<path pointer-events="all" d="M360.1,108l7-3.5l-1.8,3.5l1.8,3.5L360.1,108z"/>
				</g>
			</g>
		</g>
	</g>
</g>
</svg>
